<svg id="Layer_1" data-name="Layer 1" xmlns="http://www.w3.org/2000/svg" viewBox="0 0 413.31 448.36"><defs><style>.cls-1{fill:#327673;}</style></defs><title>AO-Atom</title><path class="cls-1" d="M384.4,274.06l-.05.08c.36-2.73.66-5.47.86-8.25l0-.62a139.4,139.4,0,0,0-9.91-62.33c38.26-36.28,65-69.85,54.67-83.83-2.05-2.83-5.24-4.6-9.49-5.26-15-2.26-46.77,10-87.25,32.48A139.36,139.36,0,0,0,267,116.95c-15.4-57.6-31.49-87.4-46.91-85.6-8.09,1-14.11,9.58-18.33,26.39-3.91,15.47-6.19,38.62-7,67a141.2,141.2,0,0,0-57.48,41.53c-56.86-14-88.65-13.84-94.57.61-5.69,14,16,35.57,64.56,64.14a141,141,0,0,0-1.82,14.69A139.54,139.54,0,0,0,115.27,308c-29.88,29.19-48.52,53.4-50.64,67.49-.66,4.31,0,7.88,2.11,10.63s5.24,4.6,9.52,5.24c14,2.12,42.6-8.43,79.21-28.12a138.58,138.58,0,0,0,68.51,31c11.1,40.89,28.27,87.76,47.91,85.28,15.42-1.95,23.67-33.36,24.59-93.22a141.18,141.18,0,0,0,59.6-44.59c40.86,11.43,90,20.91,98,2.77C460.39,330.06,437,306.33,384.4,274.06ZM109.34,221.28C46.88,184,51.23,171,51.46,170.44c2-4.81,21.28-9.82,79.39,4.09A139.34,139.34,0,0,0,109.34,221.28ZM77.7,382a5.6,5.6,0,0,1-3.36-1.42c-.64-.89-.55-2.46-.4-3.64,1.63-10.57,17.37-31.81,45.47-59.63a140.85,140.85,0,0,0,19.82,30.19c2.75,3.18,5.66,6.17,8.65,9.07C113.1,375,88.24,383.62,77.7,382ZM221.16,40.79c5.21-.63,19.18,14.42,35.59,74.95-.54,0-1.07-.12-1.62-.15a139.48,139.48,0,0,0-51,5.87C206.7,43.39,220.58,40.84,221.16,40.79ZM157.29,249.38a88.13,88.13,0,0,1,126.58-73.2c-19.45,12.57-39.89,26.65-60.81,42-23.54,17.31-45.39,34.55-64.91,51.06A88.65,88.65,0,0,1,157.29,249.38ZM178.6,313.5a87.72,87.72,0,0,1-18.15-33.71c19.7-16.85,42.45-35,68.25-54,23-16.87,44.56-31.63,64.53-44.4a88.61,88.61,0,0,1,36.73,49.39c-19,16-39.83,32.41-61.86,48.61-26,19.08-50.21,35.46-72.29,49.29A88.67,88.67,0,0,1,178.6,313.5ZM270.7,470.13c-5.38.73-19.7-14.37-36.56-74.63.36,0,.71.1,1.07.13a139.48,139.48,0,0,0,51.72-6C285.34,467.37,271.29,470.08,270.7,470.13Zm62.65-208.48,0,.52a88.25,88.25,0,0,1-128.45,72c21.8-13.81,45-29.63,68.82-47.14,18.49-13.59,38.84-29.46,58.61-46A88,88,0,0,1,333.35,261.65ZM340.93,153c39-21.38,66.8-31.43,78.14-29.71,1.15.16,2.67.55,3.33,1.47,2.36,3.23-2,18.71-35.79,53.84-4.75,4.94-10,10.07-15.37,15.27A141.24,141.24,0,0,0,340.93,153Zm104.46,187.7c-2.2,5-22.61,9.59-83.42-7.14a139.14,139.14,0,0,0,20.68-49.38C450.61,326.35,445.62,340.11,445.39,340.66Z" transform="translate(-41.78 -31.27)"/><circle class="cls-1" cx="204.4" cy="223.57" r="15.16"/></svg>