<svg id="Layer_1" data-name="Layer 1" xmlns="http://www.w3.org/2000/svg" viewBox="0 0 386.22 71.56"><defs><style>.cls-1{fill:#fd4f57;}.cls-2{fill:#00cbc4;}.cls-3{fill:#f7f5f5;}</style></defs><title>atomic-games-logo</title><path class="cls-1" d="M24.11,120.79A15,15,0,0,1,13,116.42c-4.14-4.14-4.2-8.8-4.2-16.72S8.84,87.11,13,83A15,15,0,0,1,24.11,78.6c7.75,0,13.69,4.43,15.21,13.11H31c-.82-3.38-2.91-5.89-6.93-5.89A6.7,6.7,0,0,0,18.92,88c-1.52,1.75-2,3.79-2,11.71s.52,10,2,11.71a6.7,6.7,0,0,0,5.19,2.16c4,0,6.18-2.51,7-5.89h8.22C37.8,116.36,31.8,120.79,24.11,120.79Z" transform="translate(-8.78 -66.04)"/><path class="cls-1" d="M67.81,116.42a14.78,14.78,0,0,1-11.07,4.37,14.91,14.91,0,0,1-11.13-4.37c-4.14-4.14-4.2-8.8-4.2-16.72s.06-12.59,4.2-16.72A14.91,14.91,0,0,1,56.74,78.6,14.77,14.77,0,0,1,67.81,83c4.14,4.14,4.25,8.8,4.25,16.72S72,112.29,67.81,116.42ZM61.93,88a6.73,6.73,0,0,0-5.19-2.21A7,7,0,0,0,51.5,88c-1.52,1.75-2,3.73-2,11.65s.47,9.85,2,11.6a7,7,0,0,0,5.24,2.27,6.77,6.77,0,0,0,5.19-2.27c1.52-1.75,2-3.67,2-11.6S63.44,89.79,61.93,88Z" transform="translate(-8.78 -66.04)"/><path class="cls-1" d="M102,120.44,85.53,95v25.47h-8.1V79h7.23l16.43,25.41V79h8.1v41.49Z" transform="translate(-8.78 -66.04)"/><path class="cls-1" d="M140.48,120.44,124.05,95v25.47H116V79h7.23l16.43,25.41V79h8.1v41.49Z" transform="translate(-8.78 -66.04)"/><path class="cls-1" d="M154.47,120.44V79H181.8v7.23H162.57v9.73h16.38v7.23H162.57v10.08H181.8v7.23Z" transform="translate(-8.78 -66.04)"/><path class="cls-1" d="M200.74,120.79a15,15,0,0,1-11.13-4.37c-4.14-4.14-4.2-8.8-4.2-16.72s.06-12.59,4.2-16.72a15,15,0,0,1,11.13-4.37c7.75,0,13.69,4.43,15.21,13.11h-8.27c-.82-3.38-2.91-5.89-6.93-5.89A6.7,6.7,0,0,0,195.56,88c-1.52,1.75-2,3.79-2,11.71s.52,10,2,11.71a6.7,6.7,0,0,0,5.19,2.16c4,0,6.18-2.51,7-5.89H216C214.44,116.36,208.43,120.79,200.74,120.79Z" transform="translate(-8.78 -66.04)"/><path class="cls-1" d="M235.3,86.18v34.26h-8.1V86.18H216.36V79h29.78v7.23Z" transform="translate(-8.78 -66.04)"/><path class="cls-2" d="M281,86.19V79H253.7v41.48h8.09V103.61h16.38V99.07q-3-1.41-5.1-2.69H261.78V86.19Z" transform="translate(-8.78 -66.04)"/><path class="cls-2" d="M326.94,105.58v.65a15.47,15.47,0,0,0,.38,3.5c.57,0,1.12,0,1.62,0a10.91,10.91,0,0,0,3.24-.35C331.74,108.84,330.49,107.59,326.94,105.58ZM349.43,79v27c0,4.77-2.85,7.63-7.23,7.63a6.67,6.67,0,0,1-6.09-3.19l-.07.27c-.62,2-3,2.91-7.17,2.91h-.08c2.57,4.53,7.58,7.24,13.41,7.24,8.51,0,15.27-5.77,15.27-14.57V79Zm-14.4,27V79h-6a16.37,16.37,0,0,1-2.06,4.36v17.92c4.11,2.15,6.8,4.05,8.16,5.78C335.06,106.68,335,106.31,335,105.94Z" transform="translate(-8.78 -66.04)"/><path class="cls-2" d="M385.74,102.55a11.16,11.16,0,0,0,7.58-10.89c0-6.94-5-12.7-13.45-12.7H363.6v41.48h8.1V103.9h5.82l8.1,16.54H395Zm-6.4-5.41H371.7v-11h7.63c3.55,0,5.88,2.27,5.88,5.47S382.88,97.14,379.33,97.14Z" transform="translate(-8.78 -66.04)"/><path class="cls-3" d="M326.94,102.57c-1.15-.63-2.43-1.27-3.84-1.94,0-.42,0-.84,0-1.27v-.09a21.52,21.52,0,0,0-2.54-9.4,50.9,50.9,0,0,0,6.39-8.9,10.57,10.57,0,0,0,.84-2c.4-1.25.35-2.22-.22-2.85a2.14,2.14,0,0,0-1.54-.65h-.15c-2.39,0-7,2.39-12.71,6.41a21.53,21.53,0,0,0-10.65-3.42C299.38,70.33,296.57,66,294.29,66a2.16,2.16,0,0,0-.38,0c-1.22.28-2,1.7-2.39,4.35a52.77,52.77,0,0,0,0,10.39,21.86,21.86,0,0,0-8.14,7.31,59.66,59.66,0,0,0-7.8-.63c-4,0-6.26.76-6.7,2.27-.5,1.77,1.69,4,6.52,6.6.84.45,1.75.92,2.74,1.38q.82.4,1.71.8a21.26,21.26,0,0,0,0,2.28,21.63,21.63,0,0,0,2.54,9.4c-4.11,5-6.56,9-6.66,11.18a2,2,0,0,0,2,2.25h.15c2.22,0,6.37-2.07,11.55-5.61a21.46,21.46,0,0,0,11,3.63c2.26,5.8,5.45,12.35,8.32,12.35a1.73,1.73,0,0,0,.42-.06c2.34-.55,3.08-5.51,2.25-14.7a21.76,21.76,0,0,0,8.41-7.82,60.73,60.73,0,0,0,8.33.91h.69c3.14,0,5.56-.55,6.06-2.09C335.56,108.36,332.87,105.76,326.94,102.57Zm-32.7-35.06h.09c.88,0,3.22,2.26,6.59,10.93h-.24A21.54,21.54,0,0,0,293,80.17C292.06,68.16,294.14,67.53,294.23,67.52ZM280,97c-10.2-4.69-9.74-6.76-9.72-6.86.15-.52,1.55-1.2,5.31-1.2a56,56,0,0,1,6.95.52A21.2,21.2,0,0,0,280,97Zm-2.12,25.17h-.1a.84.84,0,0,1-.54-.16.8.8,0,0,1-.12-.55c.07-1.65,2.14-5.17,6-9.89a21.46,21.46,0,0,0,3.54,4.31c.48.44,1,.85,1.48,1.25C283.23,120.5,279.61,122.22,277.92,122.22Zm9.94-21.65A13.63,13.63,0,0,1,301,86.45h.5a13.8,13.8,0,0,1,4.61.8c-2.78,2.26-5.68,4.75-8.64,7.45-3.33,3-6.4,6.05-9.12,8.9A14,14,0,0,1,287.86,100.57Zm4.32,9.49a13.49,13.49,0,0,1-3.34-4.88c2.75-2.91,5.94-6.06,9.59-9.39,3.24-3,6.32-5.59,9.17-7.87a13.71,13.71,0,0,1,6.45,7c-2.65,2.76-5.59,5.62-8.71,8.47-3.67,3.35-7.12,6.26-10.28,8.74A13.41,13.41,0,0,1,292.17,110.06Zm16.7,22.52h-.12c-.91,0-3.29-2.27-6.73-10.86h.17A21.4,21.4,0,0,0,310,120C311.07,131.91,309,132.55,308.87,132.58Zm6.19-32.94a13.64,13.64,0,0,1-13.14,14.07h-.48a13.73,13.73,0,0,1-4.91-.92c3.12-2.48,6.42-5.28,9.79-8.37,2.62-2.39,5.48-5.16,8.24-8a13.85,13.85,0,0,1,.5,3.13Zm4.7-11.1a22.07,22.07,0,0,0-5.32-5.77c5.52-3.84,9.58-5.84,11.39-5.84h.1a.85.85,0,0,1,.54.17c.42.45,0,2.9-4.61,8.85C321.22,86.78,320.51,87.65,319.77,88.54Zm13.78,21.31c-.16.5-1.4,1.09-4.61,1.09-.41,0-.84,0-1.3,0a57.57,57.57,0,0,1-7-.78A21.4,21.4,0,0,0,323,102.2c1.52.73,2.83,1.41,3.95,2C334,108.13,333.57,109.78,333.55,109.85Z" transform="translate(-8.78 -66.04)"/><path class="cls-3" d="M301.82,102.27l-.24,0a2.34,2.34,0,0,1-.24-4.67h.24a2.33,2.33,0,0,1,.24,4.66Z" transform="translate(-8.78 -66.04)"/><path class="cls-3" d="M16.25,137.51l-.62-1.87H11.87l-.64,1.87H9.07l3.85-10.58h1.62l3.86,10.58ZM13.79,130l-1.34,3.85h2.63Z" transform="translate(-8.78 -66.04)"/><path class="cls-3" d="M22.72,128.77v8.74H20.65v-8.74H17.89v-1.84h7.59v1.84Z" transform="translate(-8.78 -66.04)"/><path class="cls-3" d="M33.25,136.48a4.15,4.15,0,0,1-5.66,0c-1.06-1.06-1.07-2.24-1.07-4.27s0-3.21,1.07-4.27a4.15,4.15,0,0,1,5.66,0c1.06,1.06,1.08,2.24,1.08,4.27S34.3,135.43,33.25,136.48Zm-1.5-7.24a1.72,1.72,0,0,0-1.32-.56,1.77,1.77,0,0,0-1.34.56c-.39.45-.51,1-.51,3s.12,2.51.51,3a1.78,1.78,0,0,0,1.34.58,1.73,1.73,0,0,0,1.32-.58c.39-.45.52-.94.52-3S32.13,129.69,31.74,129.25Z" transform="translate(-8.78 -66.04)"/><path class="cls-3" d="M44,137.51v-6.17l-2,4h-1.4l-2-4v6.17H36.44V126.93h2l2.76,5.72L44,126.93h2v10.58Z" transform="translate(-8.78 -66.04)"/><path class="cls-3" d="M48.5,137.51V126.93h2.07v10.58Z" transform="translate(-8.78 -66.04)"/><path class="cls-3" d="M56.59,137.6a3.83,3.83,0,0,1-2.84-1.11c-1.06-1.06-1.07-2.24-1.07-4.27s0-3.21,1.07-4.27a3.83,3.83,0,0,1,2.84-1.11,3.73,3.73,0,0,1,3.88,3.34H58.35a1.73,1.73,0,0,0-1.77-1.5,1.71,1.71,0,0,0-1.32.55c-.39.45-.52,1-.52,3s.13,2.54.52,3a1.71,1.71,0,0,0,1.32.55,1.75,1.75,0,0,0,1.78-1.5h2.1A3.73,3.73,0,0,1,56.59,137.6Z" transform="translate(-8.78 -66.04)"/><path class="cls-3" d="M72.22,136.4a4.22,4.22,0,0,1-5.81.09c-1.06-1.06-1.07-2.24-1.07-4.27s0-3.21,1.07-4.27a4.07,4.07,0,0,1,6.81,2.27H71.14a1.78,1.78,0,0,0-1.9-1.55,1.74,1.74,0,0,0-1.32.56c-.39.45-.51,1-.51,3s.12,2.54.51,3a1.73,1.73,0,0,0,1.32.55,1.9,1.9,0,0,0,1.47-.59,2,2,0,0,0,.48-1.41v-.39H69.24v-1.74h4v1.55A4.13,4.13,0,0,1,72.22,136.4Z" transform="translate(-8.78 -66.04)"/><path class="cls-3" d="M81.22,137.51l-.62-1.87H76.83l-.64,1.87H74l3.85-10.58h1.62l3.86,10.58ZM78.75,130l-1.34,3.85H80Z" transform="translate(-8.78 -66.04)"/><path class="cls-3" d="M92.21,137.51v-6.17l-2,4h-1.4l-2-4v6.17H84.68V126.93h2l2.76,5.72,2.75-5.72h2v10.58Z" transform="translate(-8.78 -66.04)"/><path class="cls-3" d="M96.74,137.51V126.93h7v1.84h-4.9v2.48H103v1.84H98.81v2.57h4.9v1.84Z" transform="translate(-8.78 -66.04)"/><path class="cls-3" d="M108.65,137.6a5,5,0,0,1-3.86-1.4l1.34-1.34a3.45,3.45,0,0,0,2.54.89c1.23,0,1.89-.48,1.89-1.32a1.19,1.19,0,0,0-.33-.88,1.51,1.51,0,0,0-1-.36L108,133a3.5,3.5,0,0,1-2.05-.88,2.77,2.77,0,0,1-.76-2.08c0-1.89,1.4-3.21,3.69-3.21a4.53,4.53,0,0,1,3.42,1.23L111,129.37a2.93,2.93,0,0,0-2.17-.73c-1.1,0-1.62.61-1.62,1.34a1,1,0,0,0,.3.76,1.72,1.72,0,0,0,1,.4l1.26.19a3.36,3.36,0,0,1,2,.83,2.89,2.89,0,0,1,.82,2.23C112.57,136.44,110.88,137.6,108.65,137.6Z" transform="translate(-8.78 -66.04)"/><path class="cls-3" d="M117.61,137.51v-1.74l4-4.59a1.82,1.82,0,0,0,.55-1.28,1.29,1.29,0,1,0-2.57,0h-1.93a3,3,0,0,1,3.23-3.09,3,3,0,0,1,3.21,3.08,3.37,3.37,0,0,1-1.13,2.42l-3,3.43H124v1.74Z" transform="translate(-8.78 -66.04)"/><path class="cls-3" d="M128.85,137.6a3.05,3.05,0,0,1-3.23-3.15V130a3.22,3.22,0,0,1,6.44,0v4.46A3,3,0,0,1,128.85,137.6Zm1.28-7.58a1.29,1.29,0,1,0-2.57,0v4.41a1.29,1.29,0,1,0,2.57,0Z" transform="translate(-8.78 -66.04)"/><path class="cls-3" d="M136.57,137.51V129l-2.15,1.87V128.8l2.15-1.87h1.93v10.58Z" transform="translate(-8.78 -66.04)"/><path class="cls-3" d="M145,137.6a3.09,3.09,0,0,1-3.3-3.27,6.52,6.52,0,0,1,.89-2.82l2.23-4.58h2.11l-2.2,4.37a2.09,2.09,0,0,1,.79-.13,2.9,2.9,0,0,1,2.78,3.14A3.12,3.12,0,0,1,145,137.6Zm0-4.83a1.56,1.56,0,1,0,1.37,1.55A1.37,1.37,0,0,0,145,132.77Z" transform="translate(-8.78 -66.04)"/></svg>