<?xml version="1.0" encoding="utf-8"?>
<!-- Generator: Adobe Illustrator 20.0.0, SVG Export Plug-In . SVG Version: 6.00 Build 0)  -->
<svg version="1.1" id="Layer_1" xmlns="http://www.w3.org/2000/svg" xmlns:xlink="http://www.w3.org/1999/xlink" x="0px" y="0px"
	 viewBox="0 0 700 600" style="enable-background:new 0 0 700 600;" xml:space="preserve">
<style type="text/css">
	.st0{fill:#FFFFFF;filter:url(#Adobe_OpacityMaskFilter);}
	.st1{mask:url(#cut-out-holes);fill:#333;}
</style>
<defs>
	<filter id="Adobe_OpacityMaskFilter" filterUnits="userSpaceOnUse" x="0" y="0" width="700" height="600">
		<feColorMatrix  type="matrix" values="1 0 0 0 0  0 1 0 0 0  0 0 1 0 0  0 0 0 1 0"/>
	</filter>
</defs>
<mask maskUnits="userSpaceOnUse" x="0" y="0" width="700" height="600" id="cut-out-holes">
	<rect class="st0" width="700" height="600"/>
	<circle cx="50" cy="50" r="40"/>
	<circle cx="150" cy="50" r="40"/>
	<circle cx="250" cy="50" r="40"/>
	<circle cx="350" cy="50" r="40"/>
	<circle cx="450" cy="50" r="40"/>
	<circle cx="550" cy="50" r="40"/>
	<circle cx="650" cy="50" r="40"/>
	<circle cx="50" cy="150" r="40"/>
	<circle cx="150" cy="150" r="40"/>
	<circle cx="250" cy="150" r="40"/>
	<circle cx="350" cy="150" r="40"/>
	<circle cx="450" cy="150" r="40"/>
	<circle cx="550" cy="150" r="40"/>
	<circle cx="650" cy="150" r="40"/>
	<circle cx="50" cy="250" r="40"/>
	<circle cx="150" cy="250" r="40"/>
	<circle cx="250" cy="250" r="40"/>
	<circle cx="350" cy="250" r="40"/>
	<circle cx="450" cy="250" r="40"/>
	<circle cx="550" cy="250" r="40"/>
	<circle cx="650" cy="250" r="40"/>
	<circle cx="50" cy="350" r="40"/>
	<circle cx="150" cy="350" r="40"/>
	<circle cx="250" cy="350" r="40"/>
	<circle cx="350" cy="350" r="40"/>
	<circle cx="450" cy="350" r="40"/>
	<circle cx="550" cy="350" r="40"/>
	<circle cx="650" cy="350" r="40"/>
	<circle cx="50" cy="450" r="40"/>
	<circle cx="150" cy="450" r="40"/>
	<circle cx="250" cy="450" r="40"/>
	<circle cx="350" cy="450" r="40"/>
	<circle cx="450" cy="450" r="40"/>
	<circle cx="550" cy="450" r="40"/>
	<circle cx="650" cy="450" r="40"/>
	<circle cx="50" cy="550" r="40"/>
	<circle cx="150" cy="550" r="40"/>
	<circle cx="250" cy="550" r="40"/>
	<circle cx="350" cy="550" r="40"/>
	<circle cx="450" cy="550" r="40"/>
	<circle cx="550" cy="550" r="40"/>
	<circle cx="650" cy="550" r="40"/>
</mask>
<rect class="st1" width="700" height="600"/>
</svg>
